{"title":"Game.of.Thrones.S02E01.HDTV.XviD-Atilla82","uid":7198461,"size":370012590,"categoryP":"video","categoryS":"tv_shows","magnet":"?xt=urn:btih:ad5b930896b097e28081553d1643f63bcc058134&amp;dn=Game.of.Thrones.S02E01.HDTV.XviD-Atilla82&amp;tr=udp%3A%2F%2Ftracker.openbittorrent.com%3A80&amp;tr=udp%3A%2F%2Fopen.demonii.com%3A1337&amp;tr=udp%3A%2F%2Ftracker.coppersurfer.tk%3A6969&amp;tr=udp%3A%2F%2Fexodus.desync.com%3A6969","seeders":1,"leechers":0,"uploader":"Atilla82","files":3,"time":1334859677,"description":"Game.of.Thrones.S02E01.HDTV.XviD-Atilla82\n\n\n/tt0944947/\n\n\nSeven noble families fight for control of the mythical land of Westeros. \n\n\nscreenshots included in torrent\n\n\n\nGeneral\nComplete name                            : Game.of.Thrones.S02E01.HDTV.XviD-Atilla82.avi\nFormat                                   : AVI\nFormat/Info                              : Audio Video Interleave\nFile size                                : 353 MiB\nDuration                                 : 54mn 0s\nOverall bit rate                         : 913 Kbps\nWriting application                      : Lavf52.61.0\n\nVideo\nID                                       : 0\nFormat                                   : MPEG-4 Visual\nFormat profile                           : Advanced Simple@L5\nFormat settings, BVOP                    : No\nFormat settings, QPel                    : Yes\nFormat settings, GMC                     : No warppoints\nFormat settings, Matrix                  : Default (H.263)\nCodec ID                                 : XVID\nCodec ID/Hint                            : XviD\nDuration                                 : 53mn 59s\nBit rate                                 : 773 Kbps\nWidth                                    : 680 pixels\nHeight                                   : 380 pixels\nDisplay aspect ratio                     : 16:9\nFrame rate                               : 23.976 fps\nColor space                              : YUV\nChroma subsampling                       : 4:2:0\nBit depth                                : 8 bits\nScan type                                : Progressive\nCompression mode                         : Lossy\nBits/(Pixel*Frame)                       : 0.125\nStream size                              : 298 MiB (85%)\nWriting library                          : XviD 64\n\nAudio\nID                                       : 1\nFormat                                   : MPEG Audio\nFormat version                           : Version 1\nFormat profile                           : Layer 3\nCodec ID                                 : 55\nCodec ID/Hint                            : MP3\nDuration                                 : 54mn 0s\nBit rate mode                            : Constant\nBit rate                                 : 128 Kbps\nChannel(s)                               : 2 channels\nSampling rate                            : 48.0 KHz\nCompression mode                         : Lossy\nStream size                              : 49.4 MiB (14%)\nAlignment                                : Aligned on interleaves\nInterleave, duration                     : 24 ms (0.58 video frame)\n\n","torrent":{"xt":"urn:btih:ad5b930896b097e28081553d1643f63bcc058134","amp;dn":"Game.of.Thrones.S02E01.HDTV.XviD-Atilla82","amp;tr":["udp%3A%2F%2Ftracker.openbittorrent.com%3A80","udp%3A%2F%2Fopen.demonii.com%3A1337","udp%3A%2F%2Ftracker.coppersurfer.tk%3A6969","udp%3A%2F%2Fexodus.desync.com%3A6969"],"infoHash":"ad5b930896b097e28081553d1643f63bcc058134","infoHashBuffer":{"type":"Buffer","data":[173,91,147,8,150,176,151,226,128,129,85,61,22,67,246,59,204,5,129,52]},"announce":[],"urlList":[]}}